/* XPM */
static char *_864e7255eb241e9c7e704aafde30280n6dPN3dR5IfjyHtA[] = {
/* columns rows colors chars-per-pixel */
"64 60 256 2 ",
"   c #090406",
".  c #04020C",
"X  c #0B020C",
"o  c #170508",
"O  c #090616",
"+  c #150A16",
"@  c #0F1115",
"#  c #181619",
"$  c #1C141B",
"%  c #250806",
"&  c #291012",
"*  c #271819",
"=  c #361C19",
"-  c #302313",
";  c #39231B",
":  c #0F1628",
">  c #1B1923",
",  c #281C24",
"<  c #351824",
"1  c #1C2431",
"2  c #292427",
"3  c #332423",
"4  c #3C2423",
"5  c #392A29",
"6  c #272835",
"7  c #382F30",
"8  c #3C3635",
"9  c #481C13",
"0  c #45241A",
"q  c #542D1B",
"w  c #693019",
"e  c #462926",
"r  c #562D25",
"t  c #463528",
"y  c #44322C",
"u  c #4C342C",
"i  c #53352C",
"p  c #593729",
"a  c #522936",
"s  c #473836",
"d  c #4C3C34",
"f  c #543B33",
"g  c #563937",
"h  c #5C3C33",
"j  c #633B2C",
"k  c #683A29",
"l  c #663C36",
"z  c #703B32",
"x  c #57401E",
"c  c #514334",
"v  c #584339",
"b  c #68412D",
"n  c #76452D",
"m  c #684638",
"M  c #784938",
"N  c #6D5434",
"B  c #79533C",
"V  c #223852",
"C  c #0C3A66",
"Z  c #4A3D45",
"A  c #7C3E53",
"S  c #36455D",
"D  c #0E446C",
"F  c #2F526B",
"G  c #334E70",
"H  c #494747",
"J  c #564744",
"K  c #474758",
"L  c #555157",
"P  c #664846",
"I  c #774C44",
"U  c #6A554A",
"Y  c #785448",
"T  c #6A4B56",
"R  c #695656",
"E  c #765856",
"W  c #786557",
"Q  c #786853",
"!  c #4D576F",
"~  c #545564",
"^  c #555D6A",
"/  c #5B5C6B",
"(  c #655C69",
")  c #6F5B6A",
"_  c #5A606E",
"`  c #49647A",
"'  c #576379",
"]  c #776869",
"[  c #656474",
"{  c #686572",
"}  c #696777",
"|  c #6C6B7A",
" . c #726D7A",
".. c #796978",
"X. c #78737C",
"o. c #8C4E2E",
"O. c #864D37",
"+. c #88533C",
"@. c #96583C",
"#. c #875747",
"$. c #965C48",
"%. c #8E5251",
"&. c #865C54",
"*. c #A4574F",
"=. c #99644A",
"-. c #9B634D",
";. c #8D6C53",
":. c #896658",
">. c #976757",
",. c #9D6452",
"<. c #A6674B",
"1. c #AC714F",
"2. c #A26453",
"3. c #A36B55",
"4. c #A86A57",
"5. c #A97358",
"6. c #B6775A",
"7. c #955C64",
"8. c #987668",
"9. c #8F7472",
"0. c #AA7765",
"q. c #B77A66",
"w. c #B07774",
"e. c #DF755D",
"r. c #E86F5A",
"t. c #CC7473",
"y. c #EA6C69",
"u. c #F46D66",
"i. c #EC766C",
"p. c #F5756A",
"a. c #EA7A77",
"s. c #F37777",
"d. c #A7886B",
"f. c #B9866B",
"g. c #A48677",
"h. c #B88778",
"j. c #AC9178",
"k. c #C6886A",
"l. c #C58978",
"z. c #D18877",
"x. c #CA9378",
"c. c #D6957A",
"v. c #F2886F",
"b. c #E98679",
"n. c #F38677",
"m. c #F0A07F",
"M. c #1A558D",
"N. c #1B578E",
"B. c #1C5791",
"V. c #1E5991",
"C. c #26568A",
"Z. c #335886",
"A. c #235D95",
"S. c #255C96",
"D. c #295E95",
"F. c #325D98",
"G. c #39678F",
"H. c #266296",
"J. c #2B6396",
"K. c #266299",
"L. c #2B649A",
"P. c #2E699C",
"I. c #376695",
"U. c #33649A",
"Y. c #336A9D",
"T. c #3B6B9D",
"R. c #2E67A2",
"E. c #366CA2",
"W. c #376AA5",
"Q. c #3B6DA2",
"!. c #3670A5",
"~. c #3E71A6",
"^. c #425E83",
"/. c #46678A",
"(. c #566987",
"). c #54718F",
"_. c #486B97",
"`. c #48739A",
"'. c #4A739D",
"]. c #577597",
"[. c #6B768E",
"{. c #797784",
"}. c #416FA4",
"|. c #4373A5",
" X c #4976A9",
".X c #4D7AAE",
"XX c #577AA3",
"oX c #4A7BB1",
"OX c #527DB2",
"+X c #5A7FB3",
"@X c #816B80",
"#X c #867B85",
"$X c #B67980",
"%X c #F07F81",
"&X c #5B839D",
"*X c #738796",
"=X c #5C86A9",
"-X c #5885B7",
";X c #5C89B6",
":X c #5F92B9",
">X c #6F92AF",
",X c #628DB6",
"<X c #6694B5",
"1X c #7DA3B8",
"2X c #7AA4C3",
"3X c #888289",
"4X c #968686",
"5X c #878796",
"6X c #978A99",
"7X c #989597",
"8X c #A69986",
"9X c #A49D8B",
"0X c #AF9390",
"qX c #B4A692",
"wX c #9A9AA6",
"eX c #8398B1",
"rX c #AC99A9",
"tX c #8DA8B8",
"yX c #A9A3A9",
"uX c #B9ABB5",
"iX c #CE8E8B",
"pX c #D79884",
"aX c #D69699",
"sX c #E78886",
"dX c #E69487",
"fX c #E99697",
"gX c #F09490",
"hX c #D1AE94",
"jX c #E6A489",
"kX c #F4AC8F",
"lX c #E7A998",
"zX c #F2A997",
"xX c #C99AA5",
"cX c #D69CA4",
"vX c #E89CA3",
"bX c #DAA6A9",
"nX c #CBB1AF",
"mX c #D8A8B4",
"MX c #E6A6A9",
"NX c #EBB0AC",
"BX c #DAC5BA",
"VX c #EAC8B3",
"CX c #F7D8B8",
"ZX c #90AFC9",
"AX c #AEBACB",
"SX c #D3B4C3",
"DX c #E7B9C4",
"FX c #B8CAE0",
"GX c #D5CACD",
"HX c #E5CBC6",
"JX c #EFD6D3",
"KX c #EAD6D7",
"LX c #FAE3D0",
"PX c #F4DCE1",
"IX c #FBE7E6",
"UX c #F0EDEB",
/* pixels */
"C.M.M.M.M.M.M.M.M.M.M.M.M.M.N.C.C.C.C.C.A.A.A.A.A.A.V.V.A.A.A.A.A.A.A.S.S.S.S.D.D.S.S.D.H.D.D.D.D.D.A.A.A.H.K.H.D.D.D.D.F.F.F.F.",
"C.M.M.M.M.M.M.M.M.M.M.M.M.B.V.A.A.S.S.S.A.A.A.A.A.A.A.A.S.A.S.S.D.S.D.D.D.D.D.K.J.K.K.J.J.K.K.J.J.J.J.J.J.J.J.J.J.J.J.J.F.U.U.F.",
"C.C.M.B.B.B.B.B.B.B.B.A.A.A.A.S.A.S.S.S.A.A.A.K.K.H.H.H.K.K.D.D.D.K.K.P.L.L.K.K.L.K.J.J.L.L.L.L.L.L.U.L.L.L.L.L.U.U.U.U.U.U.U.U.",
"C.C.B.M.M.B.B.B.B.B.A.A.A.A.A.S.D.S.S.D.K.K.K.K.K.K.K.K.J.K.K.K.K.K.L.L.L.L.L.L.P.P.P.L.L.P.P.P.Y.Y.Y.Y.Y.Y.Y.Y.Y.Y.U.U.U.U.U.I.",
"C.C.B.B.M.B.A.A.A.A.A.A.A.A.D.K.K.K.K.K.K.K.K.L.P.K.K.J.J.J.L.L.U.U.U.L.P.P.Y.Y.R.U.R.Y.Y.P.P.P.P.P.Y.Y.Y.Y.Y.Y.Y.Y.T.Y.U.U.U.I.",
"C.C.A.A.S.A.A.A.A.A.A.A.A.K.K.K.K.K.K.P.K.K.K.J.U.I.L.P.P.U.U.U.U.F.U.U.U.I.I.Y.I.T.Y.Y.Y.E.Y.Y.Y.Y.Y.Y.Y.Y.Y.E.Q.Q.T.T.T.T.T.T.",
"C.D.D.S.D.A.K.H.K.K.K.K.K.J.J.K.J.J.P.P.J.L.L.P.R.R.P.L.I.G S S S S K K G G G Z.G.I.E.E.!.Q.Q.Q.Q.E.Y.E.E.!.E.Q.Q.Q.Q.Q.T.T.T.T.",
"D.D.S.S.D.S.S.S.K.K.K.K.K.K.J.J.J.J.P.P.I.I.Y.Y.R.U.T.G V K P E E E ] ) T R ~ ~ G /.I.T.~.Q.~.~.~.~.~.~.~.~.~.Q.Q.Q.Q.Q.Q.Q.Q.Q.",
"J.D.D.D.J.D.D.D.K.L.J.J.J.J.J.J.J.P.P.Y.Y.Y.Y.I.I.G V H R W >.>.>.>.>.%.&.&.E R / ' (._.`.~.|.|.~.~.~.~.~.~.~.~.~.~.Q.Q.}.}.}.}.",
"J.J.K.K.J.K.J.J.L.U.P.L.P.P.P.L.L.P.E.E.!.W.T.T.G Z R &.$.,.-.2.4.4.4.2.3.,.$.#.E ) [ (._.|.|.|.|.|.~.~.~.~.~.~.~.~.|.}.|.|.|.|.",
"I.I.I.I.G.I.U.P.P.U.U.W.W.Y.P.P.Y.Y.T.Q.Q.E.T.` K Y #.#.$.$.-.3.3.5.3.3.3.-.$.%.E E ) / (.`.|. X X X X X X X X X X X X X X X X X",
">XXX>X>X=XU.E.W.W.Y.Y.E.W.E.Y.E.W.W.~.~.!.|.^.K Y #.#.$.$.2.,.,.,.2.3.2.4.2.-.$.&.&.E R ( ).'. XoXoX X X X.X.X.X.X.X.X X.X.X.X X",
"*X' ' ZXeXI.I.J.G.'.T.I.Y.Q.T.Q.Q.Q.E.!.oX/.K P B +.$.$.$.2.,.,.3.3.3.2.2.<.=.$.-.#.Y U R ' ).XX.XoXoXOX.X.X.X.X.X.XOXOX.X.X.XOX",
"wX#X{ 3XwXG ^./.` ZX].`.`.T.T.T.`.|. X`.'.! J P O.#.$.$.$.-.-.2.,.-.-.,.3.,.3.3.2.,.#.Y Y / ' ]..X.XOXOXOXOXOXOXOXOXOXOXOXOXOXOX",
"HXHXHXKXyX' ' ' _ wXeXXX'.G.G.T.XX=X>XZXFXK P M I #.#.#.$.=.2.-.,.,.3.4.5.f.x.h.w.3.$.#.Y R ( (.]..X-X-XOXOXOXOXOXOX-X-XOXOXOXOX",
"HXHXHXHXVXGXGXGXGXBXGXtXZX2X=X).)././.(.*XJ m M B #.#.$.$.1.3.5.5.0.q.q.l.pXhXiXg.8.:.W W W ( ' ).=X-X-X+X+X-X-X-X-X-X-XOXOX+X-X",
"BXBXBXBXBXHXHXJXJXJXKX5X).).).&X>X2XZXAXH J m M I I #.#.=.3.0.f.l.l.l.x.x.x.h.h.:.v y 8 s s H ~ (.'.-X-X-X-X-X-X-X-X-X-X-X-X-X-X",
"HXHXJXHXHXBXnXnXHXHXKX5X(.(.[.[.[.[.{.5XJ v m I I I m m P W 8.h.h.pXc.f.x.l.#.m * X @ > > ; 3 2 V /.'.;X;X-X-X;X;X;X;X;X-X;X;X;X",
"KXKXKXPXPXGXSXnXrX7X#X#X7XuXSXHXHXJXJX0XZ v P P g 7 3 * 2 J f Y I ,.0.x.q.$.M e $ + . + = u p u 2 S ).;X;X;X;X;X;X;X;X;X;X;X;X;X",
"4X6X#X7XrXrXrXyXyXyXnXVXNXNXzXzXzXzXjXz Z J v y * + O O @ , * e p z z n w w l = X X 5 E 8.8.>.:.R K ` ;X:X:X;X;X,X,X,X,X;X,X,X,X",
"wXwX6X6X3X5X5X3X#X4XaXlXkXm.kXjXjXm.x.m d Z , + @ $ X o   O o + , e 9 >.-.0 % & e m Y &.#.B M +.#.E ~ &X,X;X,X,X<X<X<X;X<X>X,X>X",
"@XX.X.7X3X#X#X{.3X#X0XlXkXkXkXlXzXzXMXg H 6 O + * e f u = o o X o o q ,.0.O.9 = v h p Y g.g.Y m h J ( [.,X:X<X:X,X<X>X*X*XeXAXAX",
"|  .{.#XX.X.{.{.X.9.4XxXbXbXbXbXbXbXHXK 6 O $ y P B &.:.:.8.] 8   & n <.4.2.+.M m u = o o o % o o % 4 ( *X1X>X=X1XFXAXUXUX*X).V ",
" .#XX.X.X.X.{.X.X...#XrXmXMXNXbXNXbXnXK : + y g l r p r = & u 9.u j +.<.1.6.3.$.B m j m E 8.:.&.Y m i v ] 5XAXFXeX*XAXSXUX` D C ",
" .{.| X.X.X.X. .X.X.9.xXMXzXgXgXdXdXiXd + 2 y u i p U E T d i & h M @.<.6.q.6.-.>.#.$.M r q q k k z M m R 7XFXtX>X>XtXwXF D D D ",
"| | [ {.{. . . . .X.9.h.b.n.v.v.v.b.iXg * 5 5 7 5 * o & & P Y P r l +.-.<.1.1.4.-.$.%.$.3.-.=.-.,.2.=.+.Y W 7XtX1XtXZX2XG.D D D ",
"} | }  .{. . . . . .:.w.dXn.n.sXsXfXcXZ 2 7 # +   % g 9.8.Y Y m p k M @.<.1.6.<.<.2.2.2.<.5.5.5.6.q.6.3.#.P 3XAXtXtXtX1X&XD D D ",
"|  .| | | |  .{.} } ] 9.cXMXMXbXMXbXmXZ 6 $ + o 7 r 9 0 q n B I r b M o.<.k.kX6.<.2.q.q.3.6.k.x.x.k.6.6.,.:.] 5XtX1XeXZXZXD D C ",
"[ | | } | } } } | |  .@XxXmXmXbXbXbXDXZ 3 2 * = e q q n +.$.+.M k n O.O.$.1.c.pX2.$.,.3.=.<.f.c.pXpXx.f.1.;.9.6X1X>X>X,X].G C C ",
"[ [ / ( {.{.[ } [ } X.9.xXMXNXNXMXvXNXa y f h m Y #.=.$.=.=.$.+.M #.+.n +.@.-.4.B z r j k +.,.f.pXpXc.f.1.;.] ~ ` G._._._.G.C C ",
"} / _ / | [ [ [ [ } { ] aXgXgXdXn.n.dXw u b O.=.<.<.<.1.5.6.,.+.$.=.I p p j j j i = o o & j M >.0.f.f.6.6.3.&.) (.|.|.'.'._.C C ",
"/ / [ / [ } }  .} [ ( E iXb.v.n.n.n.gXr d m =.1.4.1.1.6.k.q.=.n n M g & & = = = * o o o & p k M #.3.5.1.1.-.#.) (.`.|.'.'.'.C C ",
"/ / 5X/ [ / [ [ ( [ [ ) h.dXn.dXgXfXMXe g m =.<.1.1.6.k.k.5.B p e = & O . . X X * 5 + o = Y b k n #.$.-.<.=.#.E _ ).`.'.`._.Z.D ",
"~ / ~ _ _ {.[ [ / / (.{ #XMXMXMXbXbXmXs f m +.$.<.4.6.q.5.+.p % o X . O . . $ 3 y d J m m >.0.B b k M +.@.o.O.M ( (.'.'.'.'.I.D ",
"{.~ ~ ~ [  ._ / / / ' } @XSXSXmXmXMXmXa f b n @.-.<.<.<.$.n u o O . O > # * s d e v v i p -.,.>.B b z n o.o.O.M R ' ).'.|.|._.D ",
"/ ~ ~ ^ ^ ^ ^ _ / / / / ..MXvXfXgXsXiXg d h M O.@.@.@.#.M j 3 X O + 3 , 5 y U 9.&.Y I m p m :.8.:.M k k n n n n P [ ).|.|.'._.D ",
"~ / ~ ^ _ _ ^ ^ _ ^ ^ ( ) fXsXs.p.i.b.r y i j M O.o.O.n z r * X + 6 3 y f m Y g.8.&.Y Y I h p Y ;.$.b k n n n m P [ ). X|._._.Z.",
"~ ~ ^ ^ ^ ~ / ^ ^ ^ _  .E sXi.p.p.i.z.r y u p k z n n k r j u & * 3 y g h m Y >.>.Y m m m U g e B ;.B k z z b m P / (._.'.'.`.G.",
"^ ^ ~ ~ ^ [ } / ~ ~ ~ L T iXsXvXMXcXDX7 7 e e r p k k q q m P ; 3 y f h p p p m B M b p 0 e g U ; m Y b z b b b J ~ (.XX,X=XZ.G ",
"} ^ ^ ~ ~ ~ / / ( | {.6XuXxXcXcXmXmXDX5 3 4 ; 0 r r r 0 q m P 4 3 5 e r 0 j &.m iXhX>.hX0.U & d v * Y M n b b j v L S S F /._._.",
"H ~ ~ {.#X4X6X6XrXuXnXSXSXmXmXbXMXMXcX3 3 3 = ; ; e e 0 i m d 5 5 4 e :.N 8.hXhXhXCXhXVXNXVXu = v ; i m m b b j v L ' ).XX_._._.",
"7XyXuXuXnXnXSXmXxXmXcXmXmXvXvXgXgXsXsX= 3 2 * = ; 0 = ; f g 7 3 3 e 0 j.hXj.VXLXhXCXLXCXCXVXhX= e u ; m b j h h c L ' ).].).(.` ",
"nXSXSXmXbXcXcXaXfXvXgXsXsXa.a.p.p.i.a.9 2 , * = = 0 = 4 d 5 3 , , y 8.hXVXhXCXLXVXVXCXhXhXhXhXU = s ; v j h h h v L _ [.[.*X7X3X",
"MXMXvXdXsXb.a.a.i.i.i.i.p.p.p.i.b.b.sXo > * 2 = 4 ; ; 3 8 * # $ $ 3 8Xd.hXqXqXqXqXj.j.j.g.Q 9.R * 2 4 i h h f f v ] 4XyXuXHXBXhX",
"b.a.i.u.u.u.u.u.u.p.s.s.i.a.sXgXfXfXcX, # * , = e 4 ; 3 7 # # $ , ; 8.:.j.g.:.g.8.Q Q c - @ # $ X $ 3 i h f f i :.qXnXnX8X8X9Xj.",
"r.r.p.u.u.u.p.i.a.sXfXfXvXcXcXcXxXcXmX..> > * , 4 0 0 5 2 @ + O @ # 8 L c 8 # 8 2 @ . . . O O . + $ 3 u i p p f W g.8X8X8X8X8X8X",
"r.y.i.a.sXsXfXfXaXvXbXcXbXcXcXcXaXaXMX0X+ * 2 , 4 e e 5 , @ O . . . @ > X . X . . . . . . O O + 3 3 ; u i i f c 9.8X8X9X8X8X9X8X",
"dXfXfXMXcXcXcXbXxXcXmXbXcXaXaXsXdXsXa.fX= * $ 2 4 e e 5 , + O . . O O O O O O O O O + o = 7   3 d t - u i f c P 4X9X9X9X9X9X9X9X",
"xXbXbXbXmXcXcXcXcXcXfXfXgXsXa.s.s.s.s.a.I % , , 4 e u y * $ X X . O + O O O O O X + = Y I 4Xe l v p ; e u v s W 8X8X9X9X9X9X9X9X",
"xXbXcXfXfXdXsX%Xa.s.i.s.s.p.p.a.b.a.a.z.cX% , , 4 e u t ; s * o , $ * + o X + X = E 0.x.x.k.l.#.I m t 4 t d L uXBXnXnXqX9X9X9X8X",
"dXb.s.s.p.p.p.p.p.p.s.s.s.a.b.dXpXaXaXaXrXX.> 2 4 t u e = e R % P 7.:.E 0 & = f Y 0.c.dXjXz.k.,.%.l u 4 s c J W nXPXIXIXKXKXKXKX",
"e.r.u.u.u.u.y.i.a.a.sXsXsXaXiXiXxXxXxXcXaXxXX $ 3 e y e ; e g.0 l h.f.iXg.;.:.:.w.l.jXkXkXz.6.4.#.m i y y J J v U nXIXIXIXIXIXIX",
"r.y.y.y.y.i.a.sXfXfXaXaXaXxXxXxXxXaXaXaXfXcX.., , 5 y 5 ; u j.8.#.x.x.jXlXhXf.f.l.pXkXkXdXq.-.>.Y h g u y v J v U U nXIXIXIXIXIX",
"t.t.t.t.iXaXcXcXxXcXxXxXcXaXiXsXsXsXsXz.iX0X#X6 2 3 5 5 = f #.>.-.k.c.jXzXjXx.x.c.c.c.c.l.4.$.#.m v u s s c v v c W W nXIXIXIXIX",
"$ , , > X > + , ) rXxXaXsXsXa.s.s.s.a.MX&.../ S : 2 3 3 = h m Y 4.l.6.jXNXhXVXlXpXx.c.q.4.#.#.B m u 7 s s c v t v e U W BXIXIXIX",
". Z 6X4X#X9.T a < & e E $XsXa.%Xa.t.lXJX{.uX{.K 1 6 6 2 * d l h Y 0.3.f.CXk.lXd.VXjXl.2.#.#.Y M v y 7 s s s c v ;.;.x Q 9.IXIXIX",
"4Xu 8.8.7.%.%.%.E l < & < I w.w.w.iXVXPX6XGXGXK 1 1 7 2 * s u i p #.$.f.NXf.jXhXCXpXq.0.#.I I m f 5 2 8 s d d v Q - N c W nXIXIX",
",.,.*.*.*.*.%.%.7.7.( K > , $ 7 4 HXPXKXuXGXAX5X@ 6 6 2 # 7 5 s e l #.>.q.pXf.hXiXl.q.>.M m m v s * 2 8 8 d d f x #.B q U 9.HXIX",
"7.7.*.*.%.A a < + > 1 6 1 : @ L yXKXPXPXuXyXyXwX5X: 6 6 # 2 3 7 5 = e Y I 0.8.0X&.m w.m i h v t 5 > > 8 s d c v p #.q N t Q qXLX",
"$ o X + > : : : : : : 1 6 GXPXIXKXPXKXGXyXwXwXyXwX[.1 1 # 1 2 6 , $ + < e l l E i e = 4 d f f 7 2 > # 8 s d c m j k hXx x v Q nX"
};
