/* XPM */
static char *_5440fd77d1743bffc61f5141c1199d6YpZM0Z158jXEa690[] = {
/* columns rows colors chars-per-pixel */
"68 64 247 2 ",
"   c #1F1F12",
".  c #2B1509",
"X  c #241C0D",
"o  c #2D190E",
"O  c #32160C",
"+  c #391608",
"@  c #331A0E",
"#  c #3C1A0C",
"$  c #261E12",
"%  c #391D11",
"&  c #1F2013",
"*  c #232215",
"=  c #292216",
"-  c #3B2417",
";  c #431C0C",
":  c #481B0A",
">  c #4B1D0B",
",  c #44200E",
"<  c #4B220E",
"1  c #52200A",
"2  c #442414",
"3  c #4B2413",
"4  c #4D2816",
"5  c #462619",
"6  c #452B1C",
"7  c #4C2B1B",
"8  c #522614",
"9  c #512C16",
"0  c #532D1B",
"q  c #572C1A",
"w  c #4D321E",
"e  c #583017",
"r  c #55311D",
"t  c #5B321D",
"y  c #642E18",
"u  c #64351D",
"i  c #66371C",
"p  c #6B351D",
"a  c #6B391D",
"s  c #733A1D",
"d  c #462F21",
"f  c #4B2E22",
"g  c #4D3223",
"h  c #4A3325",
"j  c #533322",
"k  c #5B3421",
"l  c #533826",
"z  c #5D3A25",
"x  c #533629",
"c  c #553A2A",
"v  c #57382C",
"b  c #5C3C2A",
"n  c #623623",
"m  c #6B3722",
"M  c #633B25",
"N  c #6C3B23",
"B  c #633D2A",
"V  c #6B3E2A",
"C  c #723C25",
"Z  c #763D27",
"A  c #7C411F",
"S  c #5E412E",
"D  c #5C4233",
"F  c #5A463A",
"G  c #64412D",
"H  c #6E4329",
"J  c #6C422C",
"K  c #744225",
"L  c #7B4426",
"P  c #7C4827",
"I  c #73452C",
"U  c #7B442A",
"Y  c #75492D",
"T  c #7C4A2C",
"R  c #644432",
"E  c #6C4532",
"W  c #6C4935",
"Q  c #634A3C",
"!  c #6D4C3B",
"~  c #744632",
"^  c #744A33",
"/  c #7B4C33",
"(  c #7C4B36",
")  c #744E3A",
"_  c #6F523D",
"`  c #74523C",
"'  c #7D5338",
"]  c #7C533B",
"[  c #674E41",
"{  c #695446",
"}  c #755442",
"|  c #7B5642",
" . c #7C5944",
".. c #795A4A",
"X. c #715D51",
"o. c #796558",
"O. c #796E62",
"+. c #814626",
"@. c #844927",
"#. c #82462A",
"$. c #844C2C",
"%. c #8B4E2C",
"&. c #86502E",
"*. c #8C512E",
"=. c #92532E",
"-. c #9A552F",
";. c #834E33",
":. c #894D32",
">. c #864C39",
",. c #964F38",
"<. c #845134",
"1. c #8B5334",
"2. c #8E5836",
"3. c #83543B",
"4. c #8B553A",
"5. c #85583D",
"6. c #8C593B",
"7. c #935533",
"8. c #995533",
"9. c #945936",
"0. c #9B5B35",
"q. c #92553A",
"w. c #9C523A",
"e. c #945B3B",
"r. c #9B5D3B",
"t. c #A15E36",
"y. c #A7573C",
"u. c #A25C3B",
"i. c #B15B39",
"p. c #91603D",
"a. c #9D613D",
"s. c #A4633C",
"d. c #AA643D",
"f. c #AC693F",
"g. c #835B44",
"h. c #8B5C43",
"j. c #865A48",
"k. c #935D43",
"l. c #995B45",
"z. c #915C50",
"x. c #A45A42",
"c. c #886147",
"v. c #8C634B",
"b. c #946145",
"n. c #9C6443",
"m. c #9E6841",
"M. c #93654C",
"N. c #9A644B",
"B. c #95694D",
"V. c #9C6A4C",
"C. c #8A6756",
"Z. c #946B52",
"A. c #9B6D53",
"S. c #976D59",
"D. c #9C7055",
"F. c #9C735B",
"G. c #A46542",
"H. c #AC6641",
"J. c #A56945",
"K. c #AB6A44",
"L. c #A2644C",
"P. c #A46C4C",
"I. c #AB6E4A",
"U. c #B56545",
"Y. c #B26C45",
"T. c #B36E49",
"R. c #AF7047",
"E. c #AC714C",
"W. c #B47047",
"Q. c #B4724B",
"!. c #B9754A",
"~. c #BB744C",
"^. c #BC794E",
"/. c #A36D52",
"(. c #AA6954",
"). c #B26C58",
"_. c #A57153",
"`. c #AC7353",
"'. c #A3745B",
"]. c #AC755B",
"[. c #A4785F",
"{. c #AB795D",
"}. c #B47552",
"|. c #B77457",
" X c #B57955",
".X c #BC7B53",
"XX c #B57C5B",
"oX c #BC7E5A",
"OX c #8B7568",
"+X c #987664",
"@X c #93796C",
"#X c #A97B63",
"$X c #B87B63",
"%X c #C06749",
"&X c #C17A4E",
"*X c #C37D53",
"=X c #C57F57",
"-X c #B5815D",
";X c #BE815C",
":X c #99867A",
">X c #BC8463",
",X c #BC846A",
"<X c #AB8777",
"1X c #B48B75",
"2X c #C58155",
"3X c #CA8256",
"4X c #C4835B",
"5X c #CA855A",
"6X c #C7885B",
"7X c #CD895E",
"8X c #D0875A",
"9X c #D28A5D",
"0X c #C48662",
"qX c #C98666",
"wX c #C58964",
"eX c #CB8B63",
"rX c #C48D6E",
"tX c #CC8F6A",
"yX c #D38D62",
"uX c #D68E6A",
"iX c #D59269",
"pX c #D99468",
"aX c #DC9B71",
"sX c #E19B6E",
"dX c #E39D72",
"fX c #DFA175",
"gX c #E8A478",
"hX c #EBA579",
"jX c #A79587",
"kX c #BA9686",
"lX c #B59A8E",
"zX c #B9A598",
"xX c #BDAEA0",
"cX c #C6A99A",
"vX c #F2AE82",
"bX c #F7B082",
"nX c #C9B9AB",
"mX c #D4B8AA",
"MX c #CDBFB1",
"NX c #CCC3B4",
"BX c #D7C6B9",
"VX c #ECC9B8",
"CX c #DBCEC1",
"ZX c #E2CEC1",
"AX c #E7D7C9",
"SX c #EBE2D3",
"DX c #F7E7D9",
/* pixels */
"U Z Z >.; 2 3 4 0 0 q 0 0 t k M B V H Y Y T T <.1.1.q.r.a.s.G.H.K.H.G.G.G.H.G.s.J.I.R.G.G.G.7.@.7.7.*.$.L P L K N N m i n M G j 5 # 2 2 ",
">.k.L.z.> 4 3 0 0 0 q 0 k k z M V V H Y Y T T ;.<.9.e.r.a.s.H.H.K.I.K.H.H.H.H.G.s.a.a.a.G.G.a.r.9.9.7.&.$.T U K C N N i M G R l 7 2 2 2 ",
"(.q.:.;.< 4 4 0 r r q 0 k z M B V V H I Y T <.4.q.e.r.a.s.s.I.I.Q.Q.Q.I.I.K.K.I.s.s.s.s.G.a.r.9.9.9.7.1.$.#.P U C N m i M G R c 7 7 0 2 ",
",.x.w.;.> 3 4 0 r r q 0 k k z B V V H I Y / ;.1.e.r.r.a.a.s.I.T.W.Q.Q.I.I.I.T.K.I.K.H.J.J.G.r.r.r.r.9.1.1.$.T U K N m i M J W c 7 j r 4 ",
"w.y.w.:.< 4 4 0 r r q 0 k k z M G H I Y / / <.1.q.e.r.0.0.0.s.s.s.s.G.s.s.s.t.s.s.s.G.K.I.K.G.G.r.r.e.7.1.$.$.U C N M i M J W c 6 4 0 3 ",
"w.w.w.:.1 4 4 0 r r q r k k z B V I ~ / ;.4.q.e.r.r.r.8.s.s.s.s.s.s.H.s.s.d.d.d.d.I.T.Q.I.K.s.s.s.a.a.9.9.1.$.T K a a i n E ` b 2 ; < 3 ",
"w.w.w.:.1 8 4 0 r r r r t k M V I Y / 4.q.e.n.G.G.K.I.K.W.Y.d.d.K.I.H.H.K.I.Y.W.W.~.^.*X^.~.Q.W.H.G.G.a.9.2.<.T K N m i M E } R ; ; 0 k ",
",.,.,.>.> 3 0 0 t t r t k n N H Y / <.6.e.n.a.J.R.Q.}.^.~.W.W.~.~.~.W.W.Q.~.^..X*X*X4X5X2X2X.X.XQ.I.n.e.b.6.<./ I I V M M G ` ` ; ; t G ",
"$.4.>.( : 9 0 k r r r t n n V Y ' 3.6.e.n.n.m.J. X;X4X7X5X4X*X2X*X*X*X*X*X^.*X=X4XeXyXyX7XeXtX>X`.V.6./ 3./ Y Y V B B z B G _ } 3 3 0 M ",
"' ( ~ E ; 4 k k r r r k k B J ^ ' 3.6.h.N.P.`.-X0X0XwXeX7X7X7X5X2X3X*X^.^.3XeXyXiXpXpXpXtX0XXX3./ ^ M G B G b k 0 4 0 R G G W ..0 4 4 r ",
"9 9 q r 2 2 k k r r r k M B B B G ^ 3.h.N.N.].XX>X0XwXeXyXiXyX7X2X&X*X3X2X3XiXdXgXgXaXaX0X_.<.J z c f x 6 h g j 4 l 2 5 k E W ..r j < 4 ",
"r 0 0 0 2 4 n k r r 0 k c c j l R G R J ^ ^ ^ g.D.-XtXtXiXpXpX9X9X9XyXyXyXaXdXgXgXaXiXwXn.3.' R l d d 6 h g g w 6 g f 6 4 G W } k k 3 8 ",
"z k 0 0 3 0 n k t 0 0 2 4 7 f h 6 6 6 j G b G B B <.{.tXiXiXaXdXsXdXdXdXdXgXvXvXvXaX6XR.e.5.M z w j w w R b c j 4 g g 7 4 b ! ` M M 3 8 ",
"B z k k 0 0 n k t 0 , % 2 f g x g g g j R ! R ) J I / P.oXeXpXgXgXgXgXgXgXgXgXgXgXiXQ.a.6.T H e z M i H ^ ( 3.) J B M 0 2 k R W ^ J 3 8 ",
"E J B n 0 8 n k k 4 # 5 2 ; 3 j j k z M B E J t H ( 3.7.K..XeXpXsXsXsXsXsXdXdXdXiX4X}.a.2.<.K I ' 6.e.n.`.}.P.b.6.5./ t 4 k E ^ Y n 8 8 ",
"^ ^ E B k 8 n k z 3 3 7 j M n J 3.h.6.4.T P K P P 2.6.a.G.Q.2X7X5X7X9XyXyXpXpXiX4X.XQ.a.2.e.n.E.XXoX4X4X.X^.I.G.n.n.p.<.B 0 E ^ G t t 8 ",
";./ V V t 8 M k t q k G G ( 4.V.P.P.`. XXX`.P.n.e.9.9.r.r.J.Q.2X^.5XyXiXyXyXeX4X.XE.G.0.a.I.XX>XwXeXtXtX4XQ.H.G.r.9.9.6./ t G Y J B t 8 ",
"k.;.N n t 9 M k t t Y ' h.b.V.G.J.I.oX;X>X>X0XXX}.J.G.a.r.a.G.H.I.W.*X5X7X5X.XQ.H.G.s.G.E.XXXX`.P.P.`.`.P.P.n.e.q.1.<.1.5.Y Y Y J ) e < ",
"w.,.#.C m n n n N H <.6.1.1.e.n.`.}. X`.P.V.b.L.I. X}.I.n.a.r.0.0.s.Y.2X7X^.H.s.r.r.J.E.P.n.<.6.3.' ' 3.3.^ H I T P T T <./ Y I J ' 0 < ",
"U.x.w.:.U m i i H I ;.#.T T 4.4.I i H Y 5.5.M.b.;.$.n./.P.n.7.7.*.0.K..X4XQ.0.8.*.G.}.n.$.b.A.#XS.} b b ! b G B V i I T ;.T Y I I E , ; ",
"%XU.y.9.:.N i a K T T K U C N B B 0 0 0 4 c ! | S.#XN.b.L.e.+.$.*.0.K..X4XQ.0.8.*.E.J.n.b.h.j.R 7 [ X.x - o.} 0 3 8 N / T T P H I M O # ",
"i.i.y.0.1.C a p K #.$.K a e t 3 g OXx 6 o.{ F [ S.J z.M.V.4.s L %.0.R..X.XH.0.*.$.E.1.P H 1XVX@Xf [ [ d 6 mXmX..; ; i / T T K K H M O @ ",
"y.i.y.8.7.s N a K #.%.P p < + 3 <XcXg - c - f ! +Xn J 8 N U N L $.0.T.^.~.G.9.%.#.4.N N Y B E E 3 # # + R +XG t n i U ;.;.<.U K H B # # ",
"y.y.y.w.$.p N K P $.$.P U y i n q k 4 + + # 3 M J | S.#X3.y p L %.0.Y.^.Q.G.8.%.L s b.'.[.[.A.' B E B B t n ' <.T $.:.:.1.1.T K I J # + ",
"w.u.u.9.U C C K P $.$.$.$.L K U T Z N Y h.z.M.D.#X'.D.v.N i s +.1.s.W.^.~.H.8.%.+.s P b.A.V.'.'.A.'./.]././.n.e.*.1.=.=.1.&.$.I I ^ # + ",
"@.s $.#.L C K K P $.%.%.%.$.$.$.%.9.G.XXXX>XXX]././.b.m i p K $.7.H.!.~.~.K.s.0.%.+.a P b.N.e.n.P.XX}.XXI.G.0.-.-.0.8.8.7.&.#.P I ^ # + ",
"#.L Z U L U K K P $.%.*.*.7.=.%.=.-.s.J.I.G.K.J.P.l.P a H C #.%.r.K.!.!.!.Y.s.r.=.$.L P <.n.P.I.I.I.J. XI.H.s.t.t.r.0.r.8.*.$.P U ) ; # ",
"a a Z ;.U U Z K P $.%.*.8.0.0.0.0.s.H.I.Q.}.oXoXP.1.L K U T $.*.u.Y.!.~.~.Y.s.s.8.%.+.$.&.9.J. X.X.X;XtXeX4X*X~.d.s.s.w.0.=.$.T I ) , ; ",
"C Z U T U Z C Z #.$.%.=.0.s.d.f.Y.*X4X4X6XeX0XI.r.q.<.L P T &.7.u.Y.~.~.~.T.s.s.0.7.$.&.1.q.r.I..X4X6XeXyXyX7X2X~.Y.H.u.0.=.&.T Y / < ; ",
"N Z C T Z Z Z U +.$.7.8.0.f.Y.Y.*X5X5X7XeX;XE.J.G.J.e.$.T &.&.7.u.H.~.~.T.Y.H.s.0.7.&.2.e.n.I.G.Q.4XeXeXyXyX9X5X*X~.Y.H.t.=.7.$.T / < ; ",
"C Z C C Z Z Z U +.1.9.t.d.W.!.&X5X8XyX7X7X.XI.J. X`.n.$.T $.&.7.u.H.Y.H.Y.Y.d.0.8.*.$.1.r.K.}..XQ.Q..X7X7X7X5X3X*X*X~.T.s.8.e.;./ / > ; ",
"C C C p Z Z Z U +.1.r.d.Y.&X*X3X3X8X9X9X*XQ.Q.0X XI.r.#.T $.&.8.u.H.d.H.!.H.t.8.=.*.$.&.r.Q..X.X6X*X~.=X=X=X3X3X3X3X*X^.K.r.r.;./ / 3 ; ",
"C N p y p C Z U +.1.r.K.~.3X3X3X8X9X8X*X~.Q.Q.Q..XJ.a.L T $.%.9.t.u.d.Y.Y.d.0.8.=.*.$.&.s.}.}..XW.T..X*X^.&X=X3X3X3X=X^.Y.s.r.;.;./ 8 ; ",
"C C C C C C Z U +.&.9.s.Q.*X3X9X9X8X*XY.W.Q..XoX XP.9.P L +.%.7.8.t.d.d.s.t.8.8.=.%.$.&.G. X X X.XeX4X2X*X&X=X3X=X=X*X!.Y.w.9.;./ ^ r 7 ",
"Z C m C C C C U +.%.7.s.I.~.*X3X3X=X*XW.T.T. X XXXXXe.K K T ;.1.=.t.d.d.d.d.0.8.%.$.+.#.r. X XQ..X=X.X*X*X^.&X&X~.!.Y.d.d.w.7.;./ ^ ! g ",
"m m m C C C C U +.$.*.r.H.Q.^..X&X&X.XQ.}.}. X X X`.4.i m K P +.%.-.s.d.K.d.u.8.%.@.+.A 9.oX.X X.X4X4X4X5X3X*X*X^.W.Y.d.t.0.7.;./ W g - ",
"C C m m C C C U +.$.%.9.s.H.Y.Q.~.~.~.^. X.X}.`.`._.P p N U L +.7.t.K.W.^.T.d.u.8.%.+.L A ;X X}..X4X7X7X7X5X2X*X^.W.Y.d.0.9.1./ Y W g o ",
"C C m m C C C U +.$.%.7.a.J.I.W.~..X.XoXoX XI.I.P.b.C U #.1.+.%.t.Y..X*X*X.XT.y.8.7.%.+.+.n.;XQ..X4XtXeX7X5X3X2X*XQ.Y.H.0.7.1.T Y E x o ",
"N C C p i N C K T $.$.1.9.s.H.W.^.*X7X4X6X}.`.I.G.+.+.7.e.9.@.=.H..X5XyXpXyX=Xd.0.8.u.0.%.=.}.s.I..XeXeX7X5X5X2X*X~.Y.Y.s.7.1./ ^ W l % ",
"4.<.;.;.T Z N K U T T 1.q.a.H.W.^.*X4XeXeX}.I.P.P.%.r.I.J.a.8.G.}.eXdXgXgXgX5XY.d.d.Q.Q.s.0.0X.XQ..XeXeX7X5X5X2X*X.XY.Y.H.8.:./ ~ E j @ ",
"~ ~ I V Z I N K K U T ;.7.r.G.Y.*X2X5XtXeX4X}.E.I.%.G. X;XoXG.K.4XpXgXgXgXbXpX&X!.2XiXtX.XG..X4X4X4X6XeX4X5X2X2X=X*XW.K.K.0.$./ ~ E g O ",
"z.j... .j.~ N I I I T ;.q.r.G.T..X*X4XeXeXeX;XoXQ.=.E.oXwX4XI.T.=XuXdXaXdXdX9X2X^.6XfXgXeXE.Q.6X0XwXwX6X4X4X2X2X*X^.W.K.H.0.$./ ~ J j O ",
"7 % o O C.' N H K I P ;.q.r.G.T.^.*X2X0XeXtXeX0X}.r.}.I. X}.^.8.H.eXeXyXeX9X*XK.!.2X.X4XoXQ.Q.6XeXwXwX4X4X4X4X2X&X~.W.K.s.r.$./ ~ J 7 O ",
"O . . o [  .M N I I T ;.1.e.G.Q.W..X*X6X0XeXeXqX}.I.K.G.}.}.G.u.H..XQ.^.W..X.X.X.XI.J.a.r.s.H.Q.;X>X;X0X0X4X*X*X~.W.W.K.t.r.:./ ~ E 4 O ",
"X.X.o.{ d C.J G H Y T ;.<.q.n.I.W.^..X.XoX.X XE.I.P.a.G.1.$.$.:.n.XX0XtXoX0XtX`.n.+.1.9.9.a.a.a.a.`.`.}..X.X.X.XI.H.K.s.r.9.$./ ^ E 5 O ",
"v [ o.OXd C.E J H I Y / <.4.r.G.K.Q..XQ.E.I.E.J.n.n.e.e.<.$./ <.h./.,X>X`.`._.V.b.6.b.e.e.b.n.n.V.P.n.J.`. XI.I.H.G.G.s.r.1.;./ ~ E # O ",
"C.{ X.o...C.r B V H Y / <.4.e.G.J.I.K.n.n.n.P.P.6.b.c.h.5./ Y V ~ / A.h.A.b.<.3.h.5.c.3.5.5.N.B.B.b.N.n.n.P.J.G.G.s.a.r.e.1.<./ J G @ @ ",
"X.{ { F D x j E V J J / ;.4.q.e.r.r.r.q.k.N.].N.h.5.^ J M B k r 4 z W c.M ^ B B M 4 E G ^ ' v.v.v.M.N.k.6.e.a.a.r.r.r.9.q.1.;./ E c O @ ",
"- $ X $ o . S E V J J ~ ( ;.<.1.1.1.4.1.k.V.V.h./ t z r 2 g g @ x w 2 } 7 7 2 4 b 4 4 k E W ..! ` 3.Z.B.h.6.q.r.e.9.9.9.7.<.;./ ~ 4 . o ",
"$ $ = $ X X D ~ V H J ~ / / ;.;.<.<.<.<.N.A.~ ^ z b g g # 2 2 2 c j # k k 2 # j 4 4 2 4 9 9 G } j t 3.A.k.<.$.q.q.q.7.7.4.<.( ~ W # O o ",
"* $ $ $ $ X D ~ C H Y Y ^ / T T / ;.$.6.v.B E R 2 f 6 5 - 2 j G } } r r z W C.S.C.} G t r r k W W 9 t v.b.6.T :.1.4.1.1.<.3.( ~ B + O O ",
"* * & *   X R >.Z I I Y Y Y T T T / ;.h.M.t c 4 2 x l j b } | C.S.+XF.S.S.<XF.A.F.F.[.v.c.' ^ M q r z E v.c.T $.1.4.1.1.<.3.( ) 7 + O O ",
"* * & &   X R j.>.~ ~ ~ Y Y ^ / / ( <.h.g.7 7 5 x Q } } ..g.j.Z.M.v.Z.'.#XD.M.B.Z.B.A.B.N.M.h.g.^ G r z v.B.<.$.<.4.1.<.<.' ^ ! , O O o ",
"= = = = $ = Q z.z.( ~ E E Y Y / / / <.B.g.2 7 b ` g. . .' g.h.B.B.V.k.#XV.V.A.A.A.B.M.b.k.k.h.g.v.g.B B Z.A.6.1.<.6.1.<.3.' ) B # O O o ",
"= = = $ X F @XkXkX+X) ^ ^ ~ Y ^ / / h.Z.) 0 b ` } g.' ' h.c.M.b.B.b.6.{.A.N./.V.Z.Z.M.h.4.;./ ^ J ` B E c.[.6.2.6.6.4.<.<.( ' R # O O o ",
"= = $ X o.lXzXcXcXkX| ) ^ ^ ^ ^ / / h.F.E r b W J G ` h.h.v.k.h.N.N.4.].].N.N.N./.N.k.h.3.( I V t G z 0 ' [.N.e.e.6.4.<.;.;.' E 3 O . . ",
"X.O.o.:XjX:XlXjX<X<XC.} ) ^ ^ ^ / ' c.F.E z  .g.` G G I ~ / Y / 4.q.l.).(.l.q.q.l.k.<.3.;.I m Y g.v. .0 ^ '.V.b.e.6.5.3.( ' ' W 7 @ . O ",
"BXnXlXOXO.:X@XOXC.} B ) ` ) ^ ) ] ] v.Z.J ` v.v.` ^ Y ~ V H U ;.N.L.x.,.l.).(.L.N.l./ ;.;.I Y 5.M.Z.v.J M c.Z.b.k.6.3.' ' c.<XC.g O . . ",
"ZXxX{ OXzXo.D D D l 4 } } ` ) ) ' ' v.v.z W c.M.h.3.( / ~ / ;.M.].(.).).|.).).L.L.l.4.4.<.<.6.N.D.'.M. .B v.M.b.h.' ' ' ` kXmXcXzXOXF h ",
"BXOXjXnXnXF D g l 7 ..} ) } ` ' ' ' g.` G ` M.A.Z.h.3.' g.3.h./.N.l.(.(.$X|.).|.(.(.k.k.e.b.N.A.{.{.B.) ) g.M.h.5.^ '  .E C.mXmXnXnXnXzX",
"MXjXBXBXmXv v x g 7 +X! b ..} ` '  .g.g.G ^ M.M.V.b.6.h.h.h.h.b.b.|.$X).$X$XrX$X(./.k.L.n.n.P._.].{.v.B W ] g.g.3.' g.c.r 2 cXBXNXMXMXMX",
"jXMXZXAXBXD x c j b +Xr z E  .g. . . . .J E c.c.B.b.b.N.h.h.M.M.'.$X$X$X$X,XrX$X$X`.P.P.I.J.J.P./.A.Z.` W ` g.g.' '  .c.B l o.ZXCXBXNXMX",
"jXAXAXAXZXD c c j ! +Xk G B ) g. .| | ` B G ' Z.B.B.V.M.6.5.h.B.D.[.#X#X{.{.#X#X{.N.k.P.XXP.P.`.`.3.E R j }  .g.g.' W B W g [ AXAXAXAXCX",
"jXDXDXDXAXQ b b k ) +Xr k B B W ..} } ..G b W v.c.M.Z.N.h.<./ I N ^ / ^ Y / / / T <.N.P.P.P.P._.V.^ b b c _ ..g.g.c.b c R j Q AXDXSXSXAX"
};
