/* XPM */
static char *f351826e40614667a155afb3ed6d1204dLDb8BMhtj4uzfWE[] = {
/* columns rows colors chars-per-pixel */
"64 64 246 2 ",
"   c #1B2935",
".  c #29333C",
"X  c #293237",
"o  c #4D4E34",
"O  c #736F34",
"+  c #645B35",
"@  c #1A3445",
"#  c #1B394B",
"$  c #193749",
"%  c #1A3C53",
"&  c #263C4B",
"*  c #2D3E4B",
"=  c #1D435A",
"-  c #2A4656",
";  c #354C5A",
":  c #3B4E56",
">  c #1C4965",
",  c #1D5677",
"<  c #244E65",
"1  c #27526B",
"2  c #3E5666",
"3  c #37566A",
"4  c #225572",
"5  c #275C78",
"6  c #3A5D73",
"7  c #355A71",
"8  c #324E61",
"9  c #2A607C",
"0  c #3C647B",
"q  c #35617A",
"w  c #45565C",
"e  c #555D53",
"r  c #4A524F",
"t  c #405666",
"y  c #42596B",
"u  c #485865",
"i  c #535C64",
"p  c #435D72",
"a  c #5B656B",
"s  c #43677C",
"d  c #526A7A",
"f  c #6A757B",
"g  c #616B71",
"h  c #918B30",
"j  c #AB9C2D",
"k  c #C0B12A",
"l  c #928A4E",
"z  c #B4AA4A",
"x  c #A5A76D",
"c  c #C2BF59",
"v  c #CFD361",
"b  c #1E698E",
"n  c #1E6589",
"m  c #1F6B91",
"M  c #1C6F99",
"N  c #1F739B",
"B  c #1F7096",
"V  c #21698E",
"C  c #2C6C8D",
"Z  c #296485",
"A  c #356782",
"S  c #396781",
"D  c #3D6A83",
"F  c #356B89",
"G  c #39718E",
"H  c #226C93",
"J  c #256F96",
"K  c #247197",
"L  c #2B7295",
"P  c #24739B",
"I  c #2B759C",
"U  c #2E799F",
"Y  c #347393",
"T  c #32779C",
"R  c #3A7B9C",
"E  c #387697",
"W  c #356F95",
"Q  c #1E77A4",
"!  c #2276A2",
"~  c #2479A5",
"^  c #2B7BA3",
"/  c #237DAB",
"(  c #2A7EAA",
")  c #2A77A0",
"_  c #337CA4",
"`  c #367CA4",
"'  c #227FB0",
"]  c #1B5C80",
"[  c #436C84",
"{  c #496E84",
"}  c #44728B",
"|  c #4B7488",
" . c #437C9B",
".. c #457995",
"X. c #577A8F",
"o. c #707B83",
"O. c #417FA6",
"+. c #2D82AD",
"@. c #2480AE",
"#. c #3283AC",
"$. c #3A85AD",
"%. c #3A82A4",
"&. c #2584B4",
"*. c #2B85B3",
"=. c #2587B8",
"-. c #258ABB",
";. c #2B8BBC",
":. c #2C88B6",
">. c #3386B2",
",. c #338AB5",
"<. c #3C8CB5",
"1. c #348DBA",
"2. c #3A8EBA",
"3. c #3A87B1",
"4. c #2E90BF",
"5. c #3D91BC",
"6. c #3691BC",
"7. c #51839E",
"8. c #79858D",
"9. c #718B98",
"0. c #4685A7",
"q. c #588DA8",
"w. c #458DB4",
"e. c #4293BB",
"r. c #4696BA",
"t. c #5496B7",
"y. c #548FAE",
"u. c #679CB7",
"i. c #7296A8",
"p. c #5DA2BD",
"a. c #6DA5BD",
"s. c #2A8EC1",
"d. c #278EC1",
"f. c #2C93C5",
"g. c #2E96C9",
"h. c #3394C4",
"j. c #3A95C3",
"k. c #3C9AC6",
"l. c #359ACB",
"z. c #3B9DCB",
"x. c #3598C8",
"c. c #3A9FD1",
"v. c #379DD0",
"b. c #388FC1",
"n. c #3EA0CC",
"m. c #3DA3D3",
"M. c #4396C3",
"N. c #439CC5",
"B. c #429ECA",
"V. c #4A9BC5",
"C. c #4C9FCA",
"Z. c #43A3CD",
"A. c #4AA4CC",
"S. c #4BA9CE",
"D. c #4BA3C9",
"F. c #55A1C7",
"G. c #54A5CB",
"H. c #58AACE",
"J. c #43A5D3",
"K. c #45AAD5",
"L. c #4CACD4",
"P. c #45AAD9",
"I. c #4BADDA",
"U. c #49A5D4",
"Y. c #53ADD3",
"T. c #5BADD2",
"R. c #53AEDB",
"E. c #4EB2DC",
"W. c #55B1D5",
"Q. c #5BB2D5",
"!. c #53B4DC",
"~. c #5BB5DA",
"^. c #5CB9DD",
"/. c #56B8DE",
"(. c #67A9C8",
"). c #77ACC8",
"_. c #77B7CC",
"`. c #64B5D5",
"'. c #63B6DA",
"]. c #63BBDD",
"[. c #6CBBDB",
"{. c #6BB6D7",
"}. c #73BCDA",
"|. c #7BBEDB",
" X c #76B8D4",
".X c #66B1CF",
"XX c #54B5E1",
"oX c #56B9E2",
"OX c #5BBBE3",
"+X c #5BB9E4",
"@X c #4CB1E1",
"#X c #62BEE1",
"$X c #6ABEE1",
"%X c #7CC3DD",
"&X c #76C1DC",
"*X c #6FC0DE",
"=X c #64C1E3",
"-X c #6BC3E4",
";X c #65C3EA",
":X c #6AC5EB",
">X c #74C5E3",
",X c #7BC6E2",
"<X c #7CC9E5",
"1X c #76C9EB",
"2X c #8B979C",
"3X c #949FA4",
"4X c #97A4AA",
"5X c #88A8B8",
"6X c #9AAFB7",
"7X c #A7B1B6",
"8X c #88B4C8",
"9X c #98B8C8",
"0X c #8DBBD2",
"qX c #83BCD7",
"wX c #96BDD3",
"eX c #A3BDCC",
"rX c #83C4DC",
"tX c #89C4D9",
"yX c #98C7D9",
"uX c #85C3CE",
"iX c #A4C5D6",
"pX c #ACCDDB",
"aX c #A7CADA",
"sX c #B0CEDA",
"dX c #AAD0DE",
"fX c #B3D3DD",
"gX c #ABC0CB",
"hX c #84CAE3",
"jX c #8ACDE4",
"kX c #86CBE7",
"lX c #94CDE3",
"zX c #8BD0E7",
"xX c #8CD2E9",
"cX c #85D0EA",
"vX c #95D3E8",
"bX c #A7CFE0",
"nX c #ACD3E2",
"mX c #A6D5E4",
"MX c #B4D5E2",
"NX c #BBDBE5",
"BX c #BBDDE9",
"VX c #B5DAE3",
"CX c #BCE2EC",
"ZX c #C3DEE7",
"AX c #CAE3E9",
"SX c #C7DE92",
/* pixels */
"u s s s s s p p p p y y y y y y y y 2 2 y y y 2 2 2 2 2 2 2 t 2 2 2 2 2 2 t t 2 2 2 2 2 2 y y y y y y y y y y y t t t t t t t w ",
"[ w.V.N.N.N.M.M.M.M.N.M.M.M.M.M.j.M.M.M.e.e.e.5.5.5.e.e.e.5.5.<.5.e.5.5.e.5.5.5.5.5.5.5.5.5.6.5.e.5.5.5.5.5.<.5.5.<.<.<.<.<.r.} ",
"s w.U.XXXXXXXX+XhX8Xw.M.R.XXXX'.yXy.w.L.R.R.!.qX).w.N.I.I.R.~.yXt.e.U.I.I.R.|.).w.M.I.I.I.R.yXt.w.U.I.I.R.{.0Xw.e.L.L.L.L.L.R.7.",
"0 w.U.+XOXOXOX;X).9.} V.:X:X:X>X5X[ 0.'.:X1XkX0X9...V.>XcXkX>X8X{ 0.^.;X;X;XqXi.} r.;X;X;X-X8X{ 0.~.;X:X;X}.5X[ w.oXOXoXoXoX!. .",
"0 <.U.:XOX+XT.T.V.O...y.{.[.[.`.w.E  ..X[.}.rX(.0.R t.tXNXmXhXw.R ` T.-X-X-XG.%.R t.$X-X-X].w.E ` `.$X$X$XT.$.E 0.Y.oXOXoXXX!...",
"0 3.U.:X:X+X0.s [ D D D } } } } D D S [ } } } [ S 0 s | X.X.| D 0 0 [ [ [ s 0 0 6 6 s [ [ s 0 6 6 s s s s s 6 6 D w./.oXXXXX!...",
"6 3.U.1X1X+X .s W _ ` ` _ _ _ ` ` _ _ _ _ _ _ _ _ T T ) ) ) ) U T U T T F S S S S 0 S S S S S S S S S S S S S E r.+XoXXXXXXX!...",
"6 3.G.MX).A...6 E 2.z.l.l.z.U.I.I.I.I.!.~.|.}.}.}.}.|.`.|.T.Y.Y.Y.Z.U.J.j.1.1.2.1.2.2.6.6.6.2.2.6.6.6.2.2.2.<.(.vXmX].#XmX(.T.} ",
"6 $.N.7.} <.G 6 E 2.c.m.@XJ.oXoXoX;XOX;X:X1XxXvXxXvXcXvXcXvX>X-X:X=XoXXXE.E.P.J.J.c.c.c.c.c.c.c.c.c.c.c.c.c.Z.}.CXAX$XQ.i.{ ` 6 ",
"7 $.z.U.U.M.D 6 G <.c.c.m.@XP.@XoXoXOXOX=X:X:XcXxXxXvXzXvXjXvX<X-X-X=X+X/.XX!.I.J.J.J.c.m.c.c.c.c.c.c.z.z.z.Z.|.CXAX].!.G.0.$.7 ",
"7 $.Z.;X+XXX .6 F ` j.x.x.c.P.m.XXXXoXoXoX=X-X:X<XxXzXxXxXxXzXzXcX:X=X=XOXoXoX!.!.E.P.J.J.z.m.z.z.z.l.z.l.l.B.|.CXAX'.!.!.!.Y.D ",
"7 $.B.;X;XoX .6 F _ ,.h.x.v.c.P.P.XXXX!.oXOX=X=X-X>XcXjXjXzXjXjXjXcX-X=X=XOXoXOXoX!.E.E.P.P.P.P.z.l.l.l.l.l.B.|.CXAX'.!.!.!.R.[ ",
"3 $.C.kX>X!. .6 F _ >.,.l.h.z.J.P.P.E.E.XXoXoXOX=X=X-XcXcXjXjXjXjXjXjX>X-X#X=X#XOXoX!.E.!.!.I.K.P.l.l.l.l.l.z.|.CXAX'./.'.!.Y.0 ",
"3 $.C.eXu.M.G 7 A T >.>.1.h.h.l.m.P.J.I.E.!.!.oX#X=X-XxXjXxXjXjXjXjXjXjX<X-X=X=XOXoXoX!.!.E.E.I.J.n.J.m.l.l.z.|.CXAX'.[.pXy.D.6 ",
"3 $.k.w.%.,.F 7 A T >.>.>.,.l.l.l.z.m.P.E.E.E.E./.#X=X>XxXhXxXhXzXhXxXhXxXjX>X=X=X#XOX=XOX/.!.E.E.E.J.K.z.z.B.|.CXZX'.Y.7.0 ` ; ",
"8 #.z.!.I.Z.G 7 A T #.#._ >.h.h.h.l.m.m.m.I.E.E.E./.=X=X-XcXcXjXjXjXhXjXjXjXjX<X=X=X=X=XoXoX/.oXE.E.E.K.J.J.U.|.CXZX'.!.Y.e.r.3 ",
"8 #.z.#XOX!. .7 A T #.#.I #.*.1.h.h.l.m.m.K.E.E.E.!./.=X=X-X<XxXhXcXhXjXhXjXjXjX<X$X#X=X=X#X=XoXOXOX!.E.E.I.U.|.CXBX'.E.E.!.Y.0 ",
"; #.z.#XOX!. .7 A T _ T _ I +.+.*.h.l.l.P.J.J.E.E.!.OX!.=X#X#X>XvX,XvX,XzXhXjXjXjXxX>X<X-X#X=X=X#X/.+X!.!.E.!.hXCXNX'.E.E.E.Y.0 ",
"; ` V.lX}.L.R q C I #.#.U _ U +.+.4.4.h.l.z.c.m.E.E.E./.OX=X#X#X<XxXhXjXhXjXhXhXjXhXjX<X<X-X#X=X=X#X!.~./.!.!.hXBXNX'.~.tXG.Y.6 ",
"- ` N.5XX.3.Y q C I #.+.U ^ ^ #.^ +.;.1.h.c.J.J.K.E.E.oXoX/.#X=XhXjXhXjXhXhXjXhXhXhXhXhXhX>X>X#X#X#X#X^.^.^.^.hXBXNXQ..X6X} w.; ",
"- ` x.j.5.,.F q C I +.+.( U _ U ^ +.+.4.h.h.l.m.J.J.E.E./.oX!.#X#X,XjXhXjXhXhXhXhXhXhXjXhXjX>X>X#X#X#X].].^.].jXBXMXQ.L.r.G _ - ",
"- ` k.oXXXI.0.q C ( 4.+.+.( U U U ^ +.*.;.;.h.l.l.m.K.E.E.E.!.oX#X#X>XhXhXjXhXhXhXhXhXhXhXhXjX,X<X>X>X-X].].].jXBXMXQ.I.L.A.D.8 ",
"- ` k.+XoX!.0.q C _ h.1.+.+.( U U I ) ( +.;.f.f.l.m.m.K.E.E./.oX/.#X].$X<XhXhXhXhXhXhXhXhXhXhXhXhX,X>X>X>X].].jXBXMXQ.L.E.E.Y.3 ",
"- _ z.$X#X!.0.q L >.h.;.;.+.+.I U U I ) ( *.;.;.f.l.m.z.I.I.E.!.!.OX#X].<XhXhXhXhXhXhXhXhXhXhXhXjXhX,X>X>X&X*XjXBXMXQ.L.E.I.Y.3 ",
"- _ V.yX).M.E 9 I :.g.g.h.*.+.^ I I I I I ^ *.;.s.g.l.m.m.P.I.I././.^.#X>XhXhXhXhXhXhXhXhXhXhXhXhXhXhX%X>X>X%XlXBXMXQ.W.'.L.G.8 ",
"- _ j.y...#.C 5 L *.h.g.;.;.*.+.( I I I I ^ ( :.s.;.g.l.m.m.K.I.E./.!.^.^.-XhXhXhXhXhXhX,XjX%XjX%XjX%XjX,X%X&XjXBXMXQ. XpX0.V.- ",
"- _ h.J.Z.5.F 5 L *.g.g.h.;.f.+.( ) I I I I ( ( *.;.;.f.g.m.l.P.I.I.E./.^.].].,XhXhXhXhXjXhXjX%XjX%XjXhXjXrX%XlXNXfXT.D.} 5 E * ",
"& _ x.oX=X/.%.5 I *.g.g.g.h.;.;.( P ^ ) I I I ^ ( *.;.s.g.g.m.m.I.I.!.!./.^.qXyXpXnXnXMXsXMXaXyXjXjXhXhXrXrXrXlXNXfXQ.L.S.<.w.- ",
"& _ h.Z./.!.0.9 L 1.m.l.g.g.f.:.;.+.( ( ^ I I I P ( :.f.;.g.z.m.z.K.I.I.L.].iX7X7X4X3X2X2X2X2Xi.u.jXrXjXrXjXrXlXNXMX'.L.L.L.D.- ",
"& ^ j.{.'.Y.%.5 L 1.J.l.g.g.g.g.f.*.( ( P I I I I P ( *.;.=.f.g.l.K.K.I.!.Q.eX6X7X4Xo.3X4Xi w : S _.SXv x 5XrXlXBXNX[.~.L.L.D.- ",
"# U M.9Xi.$.W 5 L ,.n.m.l.g.f.f.;.;.*.( ^ P P P P ) ( ( *.f.s.g.m.m.m.K.K.Y.eX4X8.8.o.o.f a i * S uXv j O d t.tXBXNX}.}.qXD.D.- ",
"# U b.3.T ( C 5 L 2.K.J.K.g.f.f.f.;.s.*.( P P P P P P ~ ( :.;.;.f.l.g.K.P.Y.eX4X8.o.f f a a i - E tXv h o 3 E (.pXNXhXtX6X} w.- ",
"@ U h.J.L.A.E 5 L 6.I.I.n.c.g.f.f.f.;.;.&.) P P P P P P ~ ( *.=.f.f.c.z.J.Y.wX2Xf x c z l e u & Y uXv h e 4Xi.<..XyXlX%Xy.G T & ",
"@ U h.I.+X!.%.5 L 1.L.K.n.n.m.g.f.f.s.-.&.( ~ P P P P P P ) ~ &.f.s.g.z.z.A.9X8.g z k h h r w & Y _.v h e 9Xa.2.B.|.mXvXrX_.p.- ",
"@ I h.~.#XW.%.5 I 6.K.K.n.K.n.l.f.f.f.;.&.&.( ~ P K P P P P P ~ &.=.-.f.l.B.5X8.a j j O O . * & Y _.v h e 8Xa.1.B.rXVXmXvXhXuX: ",
"@ I 5.tX(.e.T 5 ) k.K.K.K.K.h.J.l.f.f.s.-.-.&.~ P J P J P J P ~ ~ &.-.s.f.M.5X8.i l j O + X * # Y _.v h e ).p.,.V.rXBXBXnX X%X: ",
"@ I 1.q.[ U C 5 ) k.K.K.K.K.J.z.z.g.f.s.d.-.&.&.~ J J P J H H P K ~ -.-.-.b.5X8.u e + o o   X @ Y _.z h r p.r.:.V.yXZXfX5XR t.- ",
"@ I ;.j.1.>.C 5 ) k.I.K.J.J.K.n.l.m.h.f.s.-.=.=.&.) P H K H J H P ) ~ :.&.2.5X8.i r : * . X X @ Y .Xl O r t.w.:.V.yXAXVX Xw.r.- ",
"@ L 1.W.!.U.%.5 ) Z./.I.I.U.J.z.J.n.l.f.d.d.d.-.&.( ! P H H H H H K ! ~ ;.j.5X8.o.f i g g : * @ L `.9.3 5 V P *.V.yXAXVXtX%X(.- ",
"@ K 1.W.~.L.%.5 ) Z.^.!.L.U.U.U.z.z.J.x.;.-.-.-.=.&.~ ! P H H H H K ! ! ( 2.5X8.o.f u a g . X @ L ^.^.G._ K P *.V.tXNXVXvXlXuX: ",
"@ K 1.`.'.L.R 5 ) B././.L.!.U.U.J.m.l.z.h.;.-.d.&.&.&.! P m K V K b P ! ! *.| w & . .         # C ~.^.^.Y.<.) +.B.tXVXVXmXlXyXw ",
"@ K <.9Xi._ C 4 P B.~.Y.!.S.L.U.J.z.k.l.z.x.-.-.-.&.&.=.~ K H H H H b K P ! ( I V V V V V V L L _ Q.^.^.~.W.r.>.M. XmXVXiXu._.; ",
"@ K :.) Z P Z 4 P B.~.~.L.L.L.Z.Z.U.n.J.z.l.f.-.-.-.-.&./ ! P H H H H H m P ~ ( &.=.=.-.-.;.k.Z.Z.W.W.~.~.~.Q.G.A.}.yXyXu.C %.& ",
"@ J ;.S.A.B.E 5 P M.~.^.~.!.Z.I.Z.Z.Z.z.k.l.l.h.-.-.-.&./ @.! K H b H b M H K ! ~ @.&.&.-.h.z.z.U.L.W.Y.~.~.Q.Q.}.rXyXyXyX8Xw.& ",
"@ J ;.Y.Y.Z.R 5 P k.~.~.~.L.W.L.U.Z.Z.Z.J.J.n.l.s.-.-.-.&.' &.P P M b m H H H K P ~ &.&.-.;.h.x.x.Z.L.Y.Y.Q.Q.%XlXyXrXyXdXnX0X: ",
"@ J ,.Y.~.L.R 4 I V.].~.~.Q.Y.L.L.U.Z.Z.Z.J.z.l.h.f.-.-.-.&.&.~ P N K m H m H H m K / &.&.-.;.;.;.z.Z.U.Z.Y.Q.tXVXsX XrXyXyXyXw ",
"@ J 3.qX(.e.Y 4 I F.&X].].Q.W.W.S.L.Z.Z.Z.Z.z.k.z.l.-.-.-.=.&.&.! N N m b m H H m K ! / &.&.-.-.;.h.z.Z.Z.Z.Y.rXNXfX.X_.6XX.8X: ",
"@ J >.q.{ I Z 4 I F.%X&X].~.Q.Y.Y.L.Z.Z.Z.Z.Z.n.z.l.g.-.-.-.=.@./ N N m b m m b m M P ~ ( ( &.-.-.x.;.Z.Z.Z.A.rXNXpXG.r.E 4 V @ ",
"@ J :.1.#.( Z 4 I F.%X%XQ.Q.Q.W.W.S.L.S.Z.Z.Z.z.z.z.l.;.-.-.-.&./ &.N N M b m m m V H P ~ ~ @.&.-.-.;.x.n.Z.A.rXMXpXG.Z.D.5.<.- ",
"@ J :.S.L.Z.E 4 I F.%X}.{.[.Q.Q.Q.Y.S.L.Z.Z.Z.Z.n.x.x.z.-.-.-.-.-.&.Q N N N m m b b b m K P ~ &.-.-.;.x.h.z.A.rXMXpXG.Z.D.D.M.- ",
"@ J ,.T.Y.D.E 4 I F.%X&X%XQ.`.Q.Q.Y.Y.A.Z.Z.Z.Z.n.z.n.x.h.-.-.-.&./ / / N N m b b b b m H P ~ @./ &.-.-.h.;.M.qXMXpXG.Z.Z.D.V.- ",
"@ J <.0Xu.$.Z 4 I F.%X%X{.}.`.Q.Q.Q.L.L.L.Z.Z.Z.Z.z.4.x.h.x.-.-.-.-.&.&.N N M b m b b m H K m P ~ @.( =.-.=.1. XMXpXG.(.wXw.<.- ",
"@ J +.F 1 J Z 4 I F.%X%X%X&X`.[.Q.Q.Q.Y.S.L.S.Z.Z.Z.z.f.z.h.z.-.-.-.=.Q @.~ N B b b b b b b m P P ) ( ( &.-.1. XfXpXG.t.9.3 I @ ",
"$ J *.j.<.#.Z 4 %.H.%X%X%X{.&X`.Q.W.W.Y.Y.S.Z.Z.Z.Z.Z.Z.Z.n.x.4.-.-.=.&./ &.! K K m b V V m b H b K ! ( &.=.1. XfXsXG.k.#.C Y @ ",
"$ J *.Y.Y.A.E 5 %.H.%X%X%X%X%X`.`.Q.W.W.Y.S.S.Z.Z.n.n.Z.z.h.x.h.h.-.=.=.&./ / ! K K H b V b b b b K K P &.&.,._.fXpXG.Z.B.B.e.- ",
"$ H >.T.T.A.Y 4 %.H.%X%X%X%X{.[.`.Q.Y.W.Y.Y.S.Z.A.Z.n.n.z.k.h.z.z.-.=.=.=.&.&.~ K K N H V b b b b K K K ~ ( >._.fXsXG.Z.Z.D.M.- ",
"$ H 3.8Xq._ Z 4 %.T.%X%X%X%X%X%X`.Q.Y.W.Y.Y.S.S.D.n.n.n.Z.n.z.z.h.k.;.=.&.&./ / ~ N N N M b n b b M b M K ) #._.fXpXG.D.A.Z.r.- ",
"% H +.R A J 5 4 $.T.}.}.}.}.}.}.{.{.`.`.`.`.`.`.T.T.Y.A.A.A.Z.Z.Z.Z.Z.h.h.h.6.5.M.t.y.y.y.y.0.7.0. . . . .` 0.).sXpXG.(.iX .#.& ",
"$ H *.j.3.#.C J <.S.T.{.}.tXtXyXyXaXpXpXdXbXbXbXbXdXaXyXrX}.[.`.W.Y.Q.'.}.}.|.tXaXnXnXnXnXnXnXnXnXnXbXbXnXnXdXnXfXsXF.e.q > Z @ ",
"# H *.Y.A.B.j.5.k.B.A.T..X XqX0X0X0X0X0X0X0X0X0X0X0X8X8X).u.u.t.<.>.M.Q.[. XqXyXyXyXyXiXiXiXiXiXiXiXiXiXiXiXiXaXaXwXA.B.2._ _ & ",
"# V *.T.A.B.B.B.G.F.M.k.B.z.z.V.(.r.k.z.z.z.z.G.F.k.k.x.&.M K I H N &.z.z.n.Z.B.B.z.z.z.z.B.B.B.B.B.B.B.B.V.V.V.V.V.B.B.B.B.r.< ",
"# H *.G.B.B.B.V.).i.F >.k.B.B.F.gXd ) j.z.Z.A.8X4XS :.k.&.~ 0.a.7 ( ;.k.z.A. X9.L 1.z.B.D.).eXs +.B.B.B.D.9Xi.E 6.B.B.B.B.B.r.1 ",
"# H +.M.V.V.V.N.%.9 5 _ M.B.B.M.b , Z <.B.B.B.#.] , ) z.h.1.( n , m :.=.-.z.T 4 n #.B.B.B.e.G 1 J M.B.B.B.0.0 5 _ M.B.B.B.N.r.7 ",
"  % < 1 1 1 1 1 < = # - < < < < = # @ - < < < > % $ % 1 1 1 > > % % > , 4 5 4 > = 1 A F F Z 4 > > F G G Y Z 4 > 5 E R R R R R - "
};
