/* XPM */
static char *_776b069955244d0aff854ecc458697f6w5KEbX6OI76NXEd[] = {
/* columns rows colors chars-per-pixel */
"16 16 2 1 ",
"  c None",
". c #C6C400",
/* pixels */
"                ",
"                ",
"                ",
"                ",
"                ",
"      ....      ",
"     ......     ",
"     ......     ",
"     ......     ",
"     ......     ",
"      ....      ",
"                ",
"                ",
"                ",
"                ",
"                "
};
