/* XPM */
static char *_795263d5fa84c5e84a64bdac71b170fpvH2YN1CiLw4j3R1[] = {
/* columns rows colors chars-per-pixel */
"24 24 2 1 ",
"  c None",
". c #857D00",
/* pixels */
"        ........        ",
"        ........        ",
"        ........        ",
"        ........        ",
"        ........        ",
"        ........        ",
"        ........        ",
"        ........        ",
"        ........        ",
"        ........        ",
"        ........        ",
"        ........        ",
"        ........        ",
"        ........        ",
"        ........        ",
"        ........        ",
"        ........        ",
"        ........        ",
"        ........        ",
"        ........        ",
"        ........        ",
"        ........        ",
"        ........        ",
"        ........        "
};
